# xmcd
#
# Track frame offsets:
#	150
#	8512
#	28245
#	44883
#	64245
#	87430
#	109102
#	129657
#	145347
#	163392
#	169425
#
# Disc length: 2573 seconds
#
# Revision: 0
# Processed by: cddbd v1.5.2PL0 Copyright (c) Steve Scherf et al.
# Submitted via: EZCDAudioConverter 1.3.4.1
#
DISCID=a50a0b0b
DTITLE=Godagainst - Supreme Khalkulus Of Tribulation
DYEAR=2011
DGENRE=Brutal Death Metal
TTITLE0=The Light That Is Not (Intro)
TTITLE1=United With Absolute Malignity
TTITLE2=God Between Gods
TTITLE3=Into Heresy
TTITLE4=Worms Of Almighty God
TTITLE5=Obscurity Fills The Flesh
TTITLE6=Infinite Growing Sphere
TTITLE7=From Forgotten Catacombs
TTITLE8=Defeated In Own Dominion
TTITLE9=Disintegrated Light And Dark Polarities
TTITLE10=Kings Worship Fooled
EXTD=
EXTT0=
EXTT1=
EXTT2=
EXTT3=
EXTT4=
EXTT5=
EXTT6=
EXTT7=
EXTT8=
EXTT9=
EXTT10=
PLAYORDER=
